<?xml version="1.0" encoding="UTF-8" standalone="no"?>
<svg
   height="48"
   viewBox="0 96 960 960"
   width="48"
   version="1.1"
   id="svg4"
   sodipodi:docname="close_FILL1_wght600_GRAD0_opsz48.svg"
   inkscape:version="1.2.1 (9c6d41e410, 2022-07-14)"
   xmlns:inkscape="http://www.inkscape.org/namespaces/inkscape"
   xmlns:sodipodi="http://sodipodi.sourceforge.net/DTD/sodipodi-0.dtd"
   xmlns="http://www.w3.org/2000/svg"
   xmlns:svg="http://www.w3.org/2000/svg">
  <defs
     id="defs8" />
  <sodipodi:namedview
     id="namedview6"
     pagecolor="#ffffff"
     bordercolor="#000000"
     borderopacity="0.25"
     inkscape:showpageshadow="2"
     inkscape:pageopacity="0.0"
     inkscape:pagecheckerboard="0"
     inkscape:deskcolor="#d1d1d1"
     showgrid="false"
     inkscape:zoom="13.6875"
     inkscape:cx="24"
     inkscape:cy="24.03653"
     inkscape:window-width="1600"
     inkscape:window-height="837"
     inkscape:window-x="-8"
     inkscape:window-y="166"
     inkscape:window-maximized="1"
     inkscape:current-layer="svg4" />
  <path
     d="M249 862.566 193.434 807l231-231-231-231L249 289.434l231 231 231-231L766.566 345l-231 231 231 231L711 862.566l-231-231-231 231Z"
     id="path2" />
  <path
     style="fill:#f9f9f9;stroke-width:0.0730594"
     d="M 11.06821,36.894694 9.7178093,35.542811 15.488868,29.771406 21.259927,24 15.48862,18.228346 9.7173119,12.456691 11.087001,11.087001 12.456691,9.7173119 18.228346,15.48862 24,21.259927 l 5.771654,-5.771307 5.771655,-5.7713081 1.36969,1.3696891 1.369689,1.36969 L 32.51138,18.228346 26.740073,24 l 5.771307,5.771654 5.771308,5.771655 -1.369689,1.36969 -1.36969,1.369689 L 29.771654,32.51138 24,26.740073 18.246403,32.493324 c -3.164478,3.164288 -5.770291,5.753251 -5.790695,5.753251 -0.0204,0 -0.644778,-0.608347 -1.387498,-1.351881 z"
     id="path252"
     transform="matrix(20,0,0,20,0,96)" />
</svg>
